<?xml version="1.0" standalone="no"?>
<!DOCTYPE svg PUBLIC "-//W3C//DTD SVG 20010904//EN"
 "http://www.w3.org/TR/2001/REC-SVG-20010904/DTD/svg10.dtd">
<svg version="1.0" xmlns="http://www.w3.org/2000/svg"
 width="512.000000pt" height="512.000000pt" viewBox="0 0 512.000000 512.000000"
 preserveAspectRatio="xMidYMid meet">

<g transform="translate(0.000000,512.000000) scale(0.100000,-0.100000)"
fill="#ffffff" stroke="none">
<path d="M3480 5109 c-14 -5 -107 -91 -207 -191 l-181 -181 -44 18 c-103 42
-258 28 -369 -32 -31 -16 -259 -238 -691 -671 -512 -513 -651 -658 -672 -699
-55 -111 -67 -234 -34 -347 29 -99 69 -143 645 -723 597 -601 596 -601 722
-639 25 -8 78 -14 116 -14 152 0 227 42 423 234 400 392 1141 1154 1162 1195
70 137 70 293 0 432 -15 29 -124 147 -313 336 l-291 293 166 168 c181 182 204
216 193 286 -6 37 -29 63 -244 280 -130 131 -250 244 -268 252 -37 16 -77 17
-113 3z m160 -664 l-105 -105 -105 105 -105 105 105 105 105 105 105 -105 105
-105 -105 -105z m-674 -401 c74 -35 104 -127 66 -200 -29 -56 -819 -841 -855
-850 -78 -19 -155 20 -182 91 -35 89 -44 76 388 518 216 220 412 413 436 428
51 33 96 37 147 13z"/>
<path d="M1227 2434 c-267 -331 -267 -807 0 -1137 l55 -69 -28 -31 c-16 -17
-134 -140 -263 -274 -129 -133 -240 -252 -249 -264 -23 -32 -31 -86 -20 -127
14 -53 465 -507 520 -524 84 -25 87 -23 411 300 164 163 320 326 346 362 63
84 114 188 148 297 24 80 27 102 27 253 0 151 -3 172 -28 255 -35 115 -96 231
-167 320 -31 38 -201 213 -377 389 l-319 318 -56 -68z"/>
</g>
</svg>
