<?xml version="1.0" standalone="no"?>
<!DOCTYPE svg PUBLIC "-//W3C//DTD SVG 20010904//EN"
 "http://www.w3.org/TR/2001/REC-SVG-20010904/DTD/svg10.dtd">
<svg version="1.0" xmlns="http://www.w3.org/2000/svg"
 width="512.000000pt" height="512.000000pt" viewBox="0 0 512.000000 512.000000"
 preserveAspectRatio="xMidYMid meet">

<g transform="translate(0.000000,512.000000) scale(0.100000,-0.100000)"
fill="#ffffff" stroke="none">
<path d="M343 3254 l-26 -26 7 -136 c19 -373 98 -745 215 -1006 34 -74 102
-153 165 -190 102 -60 -11 -57 1877 -54 l1724 3 58 23 c84 34 169 117 211 206
120 253 201 627 222 1027 l7 127 -26 26 -26 26 -272 0 -271 0 -82 -80 -82 -80
-1484 0 -1484 0 -82 80 -82 80 -271 0 -272 0 -26 -26z m928 -495 c67 -36 98
-68 137 -143 22 -43 26 -64 26 -136 1 -78 -2 -90 -33 -148 -38 -70 -70 -100
-145 -140 -43 -22 -64 -26 -136 -26 -78 -1 -90 2 -148 33 -69 37 -109 80 -144
151 -17 36 -22 63 -22 130 0 100 24 160 89 225 100 100 249 121 376 54z m2224
16 c14 -13 25 -35 25 -47 0 -13 -38 -138 -85 -278 -58 -176 -91 -260 -106
-272 -20 -17 -72 -18 -769 -18 -697 0 -749 1 -769 18 -15 12 -48 96 -106 272
-47 140 -85 265 -85 278 0 12 11 34 25 47 l24 25 911 0 911 0 24 -25z m636 -4
c69 -33 112 -74 150 -143 31 -58 34 -70 34 -148 0 -78 -3 -90 -34 -148 -38
-70 -70 -100 -145 -140 -43 -22 -64 -26 -136 -26 -78 -1 -90 2 -148 33 -69 37
-109 80 -144 151 -32 66 -31 196 2 265 42 86 123 152 215 176 49 13 158 2 206
-20z"/>
<path d="M1055 2626 c-101 -44 -125 -178 -46 -257 65 -65 157 -65 222 0 124
124 -15 327 -176 257z"/>
<path d="M1844 2483 l53 -158 663 0 663 0 53 158 52 157 -768 0 -768 0 52
-157z"/>
<path d="M3935 2626 c-101 -44 -125 -178 -46 -257 65 -65 157 -65 222 0 124
124 -15 327 -176 257z"/>
</g>
</svg>
