<?xml version="1.0" encoding="UTF-8"?>
<!DOCTYPE svg PUBLIC "-//W3C//DTD SVG 1.1//EN" "http://www.w3.org/Graphics/SVG/1.1/DTD/svg11.dtd">
<svg xmlns="http://www.w3.org/2000/svg" version="1.1" width="256px" height="256px" style="shape-rendering:geometricPrecision; text-rendering:geometricPrecision; image-rendering:optimizeQuality; fill-rule:evenodd; clip-rule:evenodd" xmlns:xlink="http://www.w3.org/1999/xlink">
<g><path style="opacity:0.98" fill="#fefffe" d="M 255.5,58.5 C 255.5,68.5 255.5,78.5 255.5,88.5C 243.101,154.398 203.768,192.898 137.5,204C 94.1667,204.667 50.8333,204.667 7.5,204C 3.64987,202.647 0.983199,200.147 -0.5,196.5C -0.5,186.5 -0.5,176.5 -0.5,166.5C 7.68245,117.835 33.6825,82.3353 77.5,60C 90.2968,56.1802 103.297,53.1802 116.5,51C 160.167,50.3333 203.833,50.3333 247.5,51C 251.35,52.3532 254.017,54.8532 255.5,58.5 Z M 159.5,89.5 C 177.916,87.9467 189.749,95.9467 195,113.5C 196.73,131.546 188.897,143.046 171.5,148C 154.013,149.674 142.513,142.174 137,125.5C 134.654,107.169 142.154,95.1685 159.5,89.5 Z M 67.5,123.5 C 86.6174,123.452 94.784,132.785 92,151.5C 86.2453,163.957 76.7453,168.123 63.5,164C 51.1913,156.606 48.0246,146.439 54,133.5C 57.5308,128.795 62.0308,125.462 67.5,123.5 Z"/></g>
</svg>
