<?xml version="1.0" standalone="no"?>
<!DOCTYPE svg PUBLIC "-//W3C//DTD SVG 20010904//EN"
 "http://www.w3.org/TR/2001/REC-SVG-20010904/DTD/svg10.dtd">
<svg version="1.0" xmlns="http://www.w3.org/2000/svg"
 width="512.000000pt" height="512.000000pt" viewBox="0 0 512.000000 512.000000"
 preserveAspectRatio="xMidYMid meet">

<g transform="translate(0.000000,512.000000) scale(0.100000,-0.100000)"
fill="#ffffff" stroke="none">
<path d="M461 3187 c-106 -319 -104 -710 5 -1049 l16 -48 488 0 489 0 84 75
84 75 920 0 920 0 84 -75 84 -75 490 2 489 3 23 73 c56 177 67 263 68 497 0
236 -8 301 -62 493 l-26 94 -31 -6 c-17 -3 -229 -26 -471 -51 -242 -25 -450
-49 -462 -53 -12 -4 -57 -50 -99 -102 -42 -52 -84 -98 -93 -102 -20 -8 -1804
-10 -1826 -2 -9 4 -52 51 -96 105 -46 57 -89 101 -102 104 -12 2 -215 25 -452
50 -236 24 -447 47 -467 50 l-36 5 -21 -63z m462 -229 c85 -37 167 -154 167
-239 0 -21 1 -21 168 -54 l132 -25 1157 0 1157 0 141 27 c77 14 146 30 153 36
6 5 12 24 12 41 0 45 44 129 88 167 151 133 391 75 457 -111 18 -50 19 -151 2
-197 -40 -108 -147 -183 -262 -183 -107 0 -189 43 -244 128 l-31 49 -173 -33
-172 -34 -1128 0 -1128 0 -157 30 c-86 17 -165 32 -175 34 -12 3 -23 -7 -37
-33 -23 -46 -80 -97 -134 -122 -64 -29 -169 -26 -234 7 -170 85 -214 298 -90
439 87 99 207 126 331 73z m68 -648 c22 -12 26 -59 7 -78 -8 -8 -66 -12 -193
-12 -194 0 -205 3 -205 50 0 14 5 31 12 38 15 15 350 17 379 2z m3517 -2 c7
-7 12 -24 12 -38 0 -47 -11 -50 -205 -50 -194 0 -205 3 -205 50 0 47 11 50
205 50 127 0 185 -4 193 -12z"/>
<path d="M722 2863 c-68 -33 -111 -118 -97 -192 29 -159 243 -204 332 -70 58
87 26 212 -67 259 -48 24 -122 26 -168 3z"/>
<path d="M4205 2861 c-115 -71 -130 -212 -32 -298 112 -99 297 -15 297 134 0
73 -38 135 -102 169 -39 20 -127 18 -163 -5z"/>
<path d="M1583 2064 l-83 -74 -520 0 -521 0 -60 -41 c-40 -27 -59 -46 -57 -57
3 -16 156 -17 2218 -17 2190 0 2215 0 2215 20 0 13 -20 31 -65 56 l-65 38
-525 0 -526 1 -84 75 -84 75 -881 -1 -880 0 -82 -75z"/>
</g>
</svg>
