<?xml version="1.0" standalone="no"?>
<!DOCTYPE svg PUBLIC "-//W3C//DTD SVG 20010904//EN"
 "http://www.w3.org/TR/2001/REC-SVG-20010904/DTD/svg10.dtd">
<svg version="1.0" xmlns="http://www.w3.org/2000/svg"
 width="400.000000pt" height="400.000000pt" viewBox="0 0 400.000000 400.000000"
 preserveAspectRatio="xMidYMid meet">

<g transform="translate(0.000000,400.000000) scale(0.100000,-0.100000)"
fill="#ffffff" stroke="none">
<path d="M1860 3865 c-131 -20 -201 -34 -290 -61 -23 -7 -54 -23 -169 -85 -63
-34 -113 -96 -141 -175 l-25 -69 0 -452 0 -452 -37 -28 c-40 -31 -64 -73 -54
-99 5 -12 14 -14 38 -9 18 4 37 8 41 9 13 2 20 -1236 8 -1455 -11 -192 -4
-368 18 -464 5 -22 15 -74 21 -115 6 -41 18 -90 26 -108 35 -76 134 -116 381
-152 109 -15 510 -12 623 5 118 19 176 30 216 43 106 34 155 97 168 217 3 28
11 75 17 105 7 37 12 358 15 989 2 513 5 936 8 938 3 3 19 -2 35 -10 28 -14
32 -14 39 0 15 26 1 62 -39 98 l-39 35 0 434 c0 459 -2 486 -48 587 -23 50
-44 76 -87 106 -41 28 -174 98 -205 107 -95 28 -152 40 -300 61 -118 17 -105
17 -220 0z m-320 -134 c0 -5 -25 -39 -56 -77 -79 -98 -77 -96 -104 -134 -13
-19 -27 -37 -30 -40 -3 -3 -16 -20 -29 -37 -30 -45 -41 -41 -41 12 0 99 61
181 188 252 60 35 72 38 72 24z m928 -12 c105 -56 173 -127 191 -198 19 -75
20 -87 10 -101 -11 -18 -25 -3 -99 100 -25 35 -49 68 -55 74 -5 6 -22 27 -36
46 -15 19 -36 46 -48 59 -39 45 -25 53 37 20z m-268 -771 c121 -28 293 -101
354 -151 l30 -24 -13 -59 c-25 -118 -30 -140 -41 -204 -21 -117 -49 -247 -57
-262 -2 -4 -14 -3 -26 1 -69 27 -180 47 -352 62 -110 9 -153 9 -275 -5 -154
-18 -215 -27 -293 -46 -27 -7 -50 -10 -53 -7 -3 2 -9 31 -15 63 -6 33 -15 77
-19 99 -15 73 -30 149 -40 205 -6 30 -14 78 -19 105 -9 47 -8 51 17 73 34 28
167 93 247 120 68 23 149 41 215 46 71 6 291 -4 340 -16z m-834 -496 c6 -4 14
-23 17 -42 4 -19 11 -55 17 -80 6 -25 15 -70 21 -100 14 -69 38 -393 29 -402
-3 -4 -29 7 -58 24 l-52 33 -1 80 c0 44 -4 168 -8 275 -8 208 -3 238 35 212z
m1254 -276 l0 -283 -55 -37 c-30 -20 -57 -36 -60 -36 -18 0 7 339 34 455 5 22
14 64 20 93 13 64 27 92 46 92 13 0 15 -41 15 -284z m-1172 -470 c9 -5 12 -66
12 -230 0 -235 1 -228 -51 -343 -11 -24 -25 -55 -31 -70 -11 -26 -12 -21 -19
50 -10 112 -22 593 -16 605 7 9 84 1 105 -12z m1159 -98 c-4 -62 -7 -215 -7
-340 0 -126 -4 -228 -8 -228 -9 0 -17 16 -46 83 -9 20 -24 54 -33 75 -16 32
-18 69 -18 270 0 261 -3 252 74 252 l44 0 -6 -112z m-77 -725 c7 -32 17 -74
23 -93 13 -45 15 -224 2 -227 -10 -3 -14 7 -41 105 -15 57 -20 272 -6 272 5 0
15 -26 22 -57z m-1082 -95 c-4 -84 -11 -131 -28 -180 -13 -38 -27 -68 -32 -68
-11 0 -10 154 1 199 5 20 15 63 21 96 17 87 19 90 32 77 7 -7 9 -49 6 -124z
m207 -336 c58 -15 179 -32 225 -32 30 0 40 -4 45 -20 5 -16 15 -20 50 -20 34
0 44 4 48 20 4 16 14 20 49 20 23 1 84 8 133 16 130 22 145 25 151 35 15 25
36 -10 48 -79 11 -62 -6 -73 -154 -101 -73 -14 -480 -14 -550 0 -162 32 -169
36 -151 111 14 63 27 80 49 69 10 -5 35 -14 57 -19z"/>
</g>
</svg>
