<?xml version="1.0" standalone="no"?>
<!DOCTYPE svg PUBLIC "-//W3C//DTD SVG 20010904//EN"
 "http://www.w3.org/TR/2001/REC-SVG-20010904/DTD/svg10.dtd">
<svg version="1.0" xmlns="http://www.w3.org/2000/svg"
 width="512.000000pt" height="512.000000pt" viewBox="0 0 512.000000 512.000000"
 preserveAspectRatio="xMidYMid meet">

<g transform="translate(0.000000,512.000000) scale(0.100000,-0.100000)"
fill="#ffffff" stroke="none">
<path d="M2645 3955 c-1661 -99 -2079 -127 -2117 -140 -83 -29 -130 -83 -318
-365 -159 -238 -210 -329 -210 -374 0 -10 10 -13 38 -10 20 3 224 22 452 44
2600 244 4585 433 4588 434 1 2 12 45 23 97 26 117 21 180 -21 265 -54 111
-143 165 -280 170 -47 2 -1016 -53 -2155 -121z"/>
<path d="M2555 3144 c-1347 -128 -2465 -233 -2482 -233 -22 -1 -33 -6 -33 -15
0 -8 102 -158 228 -333 205 -288 232 -321 281 -350 29 -18 79 -38 110 -45 53
-12 145 0 2063 274 2209 316 2060 290 2143 375 57 58 73 101 120 307 63 281
59 256 38 255 -10 -1 -1120 -106 -2468 -235z"/>
<path d="M2067 2188 l-898 -129 -92 -92 c-160 -160 -395 -340 -592 -455 -86
-50 -129 -93 -150 -151 -32 -93 -13 -174 60 -246 31 -32 65 -55 91 -63 59 -17
1769 -17 1828 0 26 8 59 30 90 63 43 44 71 95 221 415 94 201 217 461 273 578
76 161 96 212 84 211 -9 -1 -421 -59 -915 -131z m-972 -773 c16 -15 25 -36 25
-55 0 -19 -9 -40 -25 -55 -15 -16 -36 -25 -55 -25 -19 0 -40 9 -55 25 -16 15
-25 36 -25 55 0 19 9 40 25 55 15 16 36 25 55 25 19 0 40 -9 55 -25z m960 0
c50 -49 15 -135 -55 -135 -19 0 -40 9 -55 25 -16 15 -25 36 -25 55 0 19 9 40
25 55 15 16 36 25 55 25 19 0 40 -9 55 -25z"/>
</g>
</svg>
